{"title":"White House Down.2013.HDTS  XviD Feel-Free","uid":8785776,"size":1714010796,"categoryP":"video","categoryS":"movies","magnet":"?xt=urn:btih:2d0a1e389e67ca2bc6ba298bf6bd26901a14e154&amp;dn=White+House+Down.2013.HDTS++XviD+Feel-Free&amp;tr=udp%3A%2F%2Ftracker.openbittorrent.com%3A80&amp;tr=udp%3A%2F%2Fopen.demonii.com%3A1337&amp;tr=udp%3A%2F%2Ftracker.coppersurfer.tk%3A6969&amp;tr=udp%3A%2F%2Fexodus.desync.com%3A6969","seeders":11,"leechers":0,"uploader":"SaM","files":8,"time":1375827003,"description":"Genre: Action | Drama | Thriller\nLanguage:English\nIMDb:http://www.imdb.com/title/tt2334879/\nSource:SmY Thanks\nSample:Never\nEncoder:Tony\n\nFormat : AVI\nFormat/Info : Audio Video Interleave\nFile size : 1.60 GiB\nDuration : 2h 4mn\nOverall bit rate : 1 828 Kbps\n\nVideo\nID : 0\nFormat : MPEG-4 Visual\nFormat profile : Advanced Simple@L5\nFormat settings, BVOP : 1\nFormat settings, QPel : No\nFormat settings, GMC : No warppoints\nFormat settings, Matrix : Default (H.263)\nCodec ID : XVID\nCodec ID/Hint : XviD\nDuration : 2h 4mn\nBit rate : 1 657 Kbps\nWidth : 640 pixels\nHeight : 264 pixels\nDisplay aspect ratio : 2.40:1\nFrame rate : 29.970 fps\nColor space : YUV\nChroma subsampling : 4:2:0\nBit depth : 8 bits\nScan type : Progressive\nCompression mode : Lossy\nBits/(Pixel*Frame) : 0.327\nStream size : 1.45 GiB (91%)\nWriting library : XviD 1.2.1 (UTC 2008-12-04)\n\nAudio\nID : 1\nFormat : AC-3\nFormat/Info : Audio Coding 3\nMode extension : CM (complete main)\nCodec ID : 2000\nDuration : 2h 4mn\nBit rate mode : Constant\nBit rate : 160 Kbps\nChannel(s) : 2 channels\nChannel positions : Front: L R\nSampling rate : 48.0 KHz\nBit depth : 16 bits\nCompression mode : Lossy\nStream size : 143 MiB (9%)\nAlignment : Aligned on interleaves\nInterleave, duration : 33 ms (1.00 video frame)\nInterleave, preload duration : 512 ms\n &lt;a href=&quot;\nhttp://img547.imageshack.us/img547/8995/ptj7.png&quot; rel=&quot;nofollow&quot; target=&quot;_NEW&quot;&gt;\nhttp://img547.imageshack.us/img547/8995/ptj7.png&lt;/a&gt;\n &lt;a href=&quot;\nhttp://img7.imageshack.us/img7/6740/dsh9.png&quot; rel=&quot;nofollow&quot; target=&quot;_NEW&quot;&gt;\nhttp://img7.imageshack.us/img7/6740/dsh9.png&lt;/a&gt;\n &lt;a href=&quot;\nhttp://img46.imageshack.us/img46/3039/2eka.png&quot; rel=&quot;nofollow&quot; target=&quot;_NEW&quot;&gt;\nhttp://img46.imageshack.us/img46/3039/2eka.png&lt;/a&gt;\n\nGreets:\nCRYS,INSPiRAL,IMAGINE,LKRG,ADTRG,FXG,3Li,FLAWL3SS,CrEwSaDe,TA,iLLUSiON,EMBER,HOPE,GooN,BBnRG,NOGRP,ETRG,BHRG,iLLUMiNATi,MiSTERE.ViSiON,DTRG SAFCuk009,LU,TheFalcon007,MYSTiC,PrisM,Noir,WBZ,LAP,Rx,Kingdom,SAFCuk009+Fabreezy,HDLiTE,TWiZTED,ETRG.ELEKTRI4KA,MAGNAT,CM8\nAnd to all the other p2p grps past and present\n\n\n\nMake sure its a real Feel-Free release @ http://extratorrent.com\nThanks to all who promotes release Feel-Free !!!","torrent":{"xt":"urn:btih:2d0a1e389e67ca2bc6ba298bf6bd26901a14e154","amp;dn":"White+House+Down.2013.HDTS++XviD+Feel-Free","amp;tr":["udp%3A%2F%2Ftracker.openbittorrent.com%3A80","udp%3A%2F%2Fopen.demonii.com%3A1337","udp%3A%2F%2Ftracker.coppersurfer.tk%3A6969","udp%3A%2F%2Fexodus.desync.com%3A6969"],"infoHash":"2d0a1e389e67ca2bc6ba298bf6bd26901a14e154","infoHashBuffer":{"type":"Buffer","data":[45,10,30,56,158,103,202,43,198,186,41,139,246,189,38,144,26,20,225,84]},"announce":[],"urlList":[]}}